<svg width="200" height="200" viewBox="0 0 200 200" fill="none" xmlns="http://www.w3.org/2000/svg">
  <circle cx="100" cy="100" r="100" fill="#0052FF"/>
  <path d="M100 150C127.614 150 150 127.614 150 100C150 72.3858 127.614 50 100 50C72.3858 50 50 72.3858 50 100C50 127.614 72.3858 150 100 150Z" fill="white"/>
  <path d="M89.0909 115.909C85.0909 115.909 81.8182 112.636 81.8182 108.636V91.3636C81.8182 87.3636 85.0909 84.0909 89.0909 84.0909H110.909C114.909 84.0909 118.182 87.3636 118.182 91.3636V108.636C118.182 112.636 114.909 115.909 110.909 115.909H89.0909Z" fill="#0052FF"/>
</svg> 